<?xml version="1.0" standalone="no"?>
<!DOCTYPE svg PUBLIC "-//W3C//DTD SVG 20010904//EN"
 "http://www.w3.org/TR/2001/REC-SVG-20010904/DTD/svg10.dtd">
<svg version="1.0" xmlns="http://www.w3.org/2000/svg"
 width="296.000000pt" height="225.000000pt" viewBox="0 0 296.000000 225.000000"
 preserveAspectRatio="xMidYMid meet">

<g transform="translate(0.000000,225.000000) scale(0.100000,-0.100000)"
fill="#000000" stroke="none">
<path d="M0 1125 l0 -1125 1480 0 1480 0 0 1125 0 1125 -1480 0 -1480 0 0
-1125z m516 774 c32 -19 32 -19 82 7 41 21 54 24 71 15 25 -14 35 -50 28 -94
-5 -31 -2 -34 41 -57 39 -21 48 -30 50 -56 2 -25 -3 -36 -25 -52 -15 -10 -38
-22 -50 -26 -18 -6 -21 -12 -16 -41 8 -48 -4 -84 -32 -97 -20 -9 -31 -6 -69
16 l-46 27 -46 -27 c-38 -22 -49 -25 -69 -16 -28 13 -40 49 -32 97 5 29 2 35
-16 41 -12 4 -35 16 -50 26 -22 16 -27 27 -25 52 2 25 11 35 49 55 l46 24 -5
48 c-4 38 0 51 17 68 24 24 44 22 97 -10z m467 -456 c-7 -2 -19 -2 -25 0 -7 3
-2 5 12 5 14 0 19 -2 13 -5z m840 0 c-7 -2 -19 -2 -25 0 -7 3 -2 5 12 5 14 0
19 -2 13 -5z m-1200 -695 l-173 -173 -60 60 -60 60 112 112 113 113 120 0 120
0 -172 -172z m1847 -78 l0 -240 -240 0 -240 0 0 240 0 240 240 0 240 0 0 -240z
m-1150 175 c-7 -9 -15 -13 -19 -10 -3 3 1 10 9 15 21 14 24 12 10 -5z m243
-90 c36 -35 32 -143 -6 -170 -14 -10 -49 -16 -97 -17 -55 -1 -62 -3 -27 -5 44
-4 47 -6 47 -32 0 -39 -22 -54 -85 -59 -47 -4 -57 -1 -79 21 -20 20 -26 36
-26 71 0 25 4 56 9 69 9 23 16 25 86 29 66 3 80 7 96 27 10 13 19 36 19 52 0
24 4 29 24 29 14 0 31 -7 39 -15z m-333 -14 c-11 -21 -30 -37 -30 -25 0 8 30
44 37 44 2 0 -1 -9 -7 -19z m-247 -338 c-7 -2 -19 -2 -25 0 -7 3 -2 5 12 5 14
0 19 -2 13 -5z m840 0 c-7 -2 -19 -2 -25 0 -7 3 -2 5 12 5 14 0 19 -2 13 -5z"/>
<path d="M430 1890 c-6 -11 -10 -35 -8 -53 3 -27 8 -33 32 -35 29 -4 76 29 76
54 0 13 -34 38 -67 48 -16 5 -25 2 -33 -14z"/>
<path d="M612 1893 c-44 -22 -50 -39 -21 -69 17 -18 32 -24 54 -22 26 3 30 8
33 35 3 31 -12 73 -26 73 -4 0 -22 -8 -40 -17z"/>
<path d="M537 1834 c-13 -13 -7 -24 14 -24 11 0 19 5 17 12 -5 14 -22 21 -31
12z"/>
<path d="M484 1751 l-26 -39 24 -41 c22 -38 26 -41 69 -41 43 0 47 2 68 40
l22 40 -22 40 c-21 37 -26 40 -66 40 -39 0 -45 -4 -69 -39z m96 -16 c26 -32
-13 -81 -47 -59 -35 22 -23 74 17 74 10 0 23 -7 30 -15z"/>
<path d="M440 1766 c0 -22 17 -28 24 -10 9 22 8 24 -9 24 -8 0 -15 -6 -15 -14z"/>
<path d="M634 1764 c3 -9 6 -18 6 -20 0 -3 5 -2 10 1 16 10 12 35 -6 35 -11 0
-14 -5 -10 -16z"/>
<path d="M363 1750 c-20 -12 -33 -28 -33 -40 0 -19 51 -60 75 -60 20 0 34 58
22 90 -13 35 -21 37 -64 10z"/>
<path d="M673 1740 c-12 -32 2 -90 22 -90 24 0 75 41 75 60 0 19 -51 60 -75
60 -6 0 -16 -13 -22 -30z"/>
<path d="M447 1673 c-12 -12 -7 -33 8 -33 17 0 19 9 7 28 -5 7 -11 9 -15 5z"/>
<path d="M636 1664 c-9 -22 -8 -24 9 -24 8 0 15 6 15 14 0 22 -17 28 -24 10z"/>
<path d="M427 1613 c-12 -12 -7 -69 8 -89 14 -19 15 -19 52 2 47 27 50 38 19
69 -24 24 -65 33 -79 18z"/>
<path d="M594 1595 c-31 -31 -29 -42 19 -69 38 -21 38 -21 53 -1 8 11 14 35
12 55 -3 30 -7 35 -30 38 -19 2 -36 -5 -54 -23z"/>
<path d="M533 1598 c2 -7 10 -13 17 -13 7 0 15 6 18 13 2 7 -5 12 -18 12 -13
0 -20 -5 -17 -12z"/>
<path d="M2315 675 c-14 -13 -25 -30 -25 -38 0 -23 37 -63 70 -77 19 -8 30
-19 28 -29 -4 -22 -36 -26 -57 -7 -15 13 -20 14 -36 2 -17 -12 -17 -14 3 -34
46 -46 142 -18 142 42 0 25 -44 69 -80 81 -21 7 -27 30 -10 40 6 4 17 2 24 -4
14 -12 46 -5 46 10 0 12 -42 39 -63 39 -10 0 -29 -11 -42 -25z"/>
<path d="M2210 605 c0 -67 -3 -87 -15 -91 -8 -4 -21 -1 -29 5 -13 11 -46 5
-46 -9 0 -17 39 -40 67 -40 51 0 67 29 71 131 l4 89 -26 0 c-26 0 -26 0 -26
-85z"/>
<path d="M1436 533 c-12 -12 -6 -33 9 -33 8 0 15 6 15 14 0 17 -14 28 -24 19z"/>
</g>
</svg>
